<svg xmlns="http://www.w3.org/2000/svg" viewBox="0 0 203.29 170.84"><defs><style>.cls-1{fill:#fff;opacity:0;}.cls-2{fill:#4e5967;}.cls-3{fill:#ea5152;}.cls-4,.cls-5,.cls-6,.cls-7{fill:#c92321;}.cls-4{opacity:0.75;}.cls-5{opacity:0.9;}.cls-7{opacity:0.5;}.cls-8{fill:#00a79d;}</style></defs><title>Fichier 1</title><g id="Calque_2" data-name="Calque 2"><g id="Calque_1-2" data-name="Calque 1"><rect class="cls-1" width="203.29" height="170.84"/><path class="cls-2" d="M56.87,115.06l-1.36,9.27a10.94,10.94,0,0,0-8.17-3.87c-3,0-4.55.9-4.55,2.72,0,.9.82,1.9,2.46,3q1.94,1.2,5.81,3.66A9.36,9.36,0,0,1,55.35,138a11.59,11.59,0,0,1-4.87,9.94,18.47,18.47,0,0,1-11,3.14q-7.38,0-11-3l1.46-10.21c2.44,3.35,5.45,5,9,5q4.92,0,4.92-3.2c0-1.15-.9-2.25-2.72-3.29l-5-2.83a9.33,9.33,0,0,1-5-8.43A11.33,11.33,0,0,1,36,115.33,18.28,18.28,0,0,1,47,112.19Q53.46,112.19,56.87,115.06Z"/><path class="cls-2" d="M80.84,122.81l-1,7.33H72.46l-1.31,9.48a2.43,2.43,0,0,0-.1.68c0,1.6.91,2.4,2.72,2.4a8.83,8.83,0,0,0,5.13-1.94l-1.1,7.49a16.4,16.4,0,0,1-8.58,2.2q-8.47,0-8.48-7.44a11.45,11.45,0,0,1,.16-1.88l1.51-11H59.17l.58-4.09,14.88-11.26-1.11,8Z"/><path class="cls-2" d="M109.31,142.86l-.84,6.06a13,13,0,0,1-6.54,1.63q-4.55,0-5-3.14a11.34,11.34,0,0,1-8.38,3.14,7.62,7.62,0,0,1-5.26-1.8,6.39,6.39,0,0,1-2-5A9.2,9.2,0,0,1,86,135.32a19.08,19.08,0,0,1,9.89-2.3h1.78a9.79,9.79,0,0,0,.16-1.05c0-1.43-1.19-2.15-3.56-2.15a16.18,16.18,0,0,0-9.32,3l1.1-7.8a25.56,25.56,0,0,1,11.78-2.67q10.16,0,10.15,8a12.57,12.57,0,0,1-.21,2.25l-1.31,9.31c0,.11,0,.2,0,.27,0,.8.38,1.2,1.15,1.2A3.74,3.74,0,0,0,109.31,142.86Zm-12.38-4.4a7.89,7.89,0,0,0-.84-.05,6.27,6.27,0,0,0-3,.68,2.74,2.74,0,0,0-1.47,2.46c0,1.25.7,1.88,2.11,1.88a3.19,3.19,0,0,0,2.68-1.3Z"/><path class="cls-2" d="M156.42,129.41a20.18,20.18,0,0,1-.27,3.08l-1.67,11.62a18.16,18.16,0,0,0-.21,2.67,9.54,9.54,0,0,0,.47,3.19H143.48l2.45-17a3.34,3.34,0,0,0,.07-.68c0-1.46-.65-2.19-1.94-2.19a4.07,4.07,0,0,0-3.61,2.46L138,150H128L130.46,133a5.74,5.74,0,0,0,0-.68c0-1.47-.64-2.2-1.92-2.2A4,4,0,0,0,125,132.6L122.5,150H112.24l2.62-18.9a15.41,15.41,0,0,0,.31-2.77q0-3.45-2.56-4.08l.16-1.41h12.45l0,3.46a11,11,0,0,1,8.58-4c3.67,0,5.92,1.32,6.76,4a11,11,0,0,1,8.79-4Q156.41,122.29,156.42,129.41Z"/><path class="cls-2" d="M174.16,122.81l-3,21.25a19.6,19.6,0,0,0-.21,2.77,10,10,0,0,0,.41,3.14H160l2.7-18.84a18.31,18.31,0,0,0,.27-2.82q0-3.47-2.62-4.09l.21-1.41Zm.73-6.8a4.81,4.81,0,0,1-1.75,3.74,5.82,5.82,0,0,1-3.95,1.54,5.07,5.07,0,0,1-3.43-1.25,4.06,4.06,0,0,1-1.44-3.2,4.85,4.85,0,0,1,1.75-3.79,5.9,5.9,0,0,1,4-1.54,4.93,4.93,0,0,1,3.4,1.25A4.15,4.15,0,0,1,174.89,116Z"/><path class="cls-3" d="M115.63,79.2A48.83,48.83,0,0,1,102,89.94h0A48.7,48.7,0,0,1,88.25,79.2c-8-9.42-2.42-20.49,5.38-20.93a1.89,1.89,0,0,1,.41,0c2.55,0,5.27,1.18,7.8,3.85L102,62s0,.05.08.08c2.53-2.67,5.25-3.82,7.8-3.85a8.83,8.83,0,0,1,4.94,1.62L101.93,76.37l-9-4.48,9.39,8.16,15-17.58C120.32,66.65,120.71,73.24,115.63,79.2Z"/><path class="cls-4" d="M130.75,41.44a13,13,0,0,1-.31,1.93,20.21,20.21,0,0,1-2.09,5.28,19.63,19.63,0,0,1,3.82,8.44,14.2,14.2,0,0,0,2.25-8.76c0-.34-.12-.66-.19-1a21.19,21.19,0,0,0-1.46-3A20,20,0,0,0,130.75,41.44Z"/><path class="cls-5" d="M117.25,41c0,.49.07,1,.09,1.46a14,14,0,0,1,7.55,2.82,15.12,15.12,0,0,0,.87-2.92,6.15,6.15,0,0,0-2.32-6.53,19.49,19.49,0,0,0-7.15-1.66c-.55,0-1.09.06-1.62.1A14.94,14.94,0,0,1,117.25,41Z"/><path class="cls-6" d="M72.76,61.07a24,24,0,0,0,3.46,10.38,49.73,49.73,0,0,0,7.38,9A108.09,108.09,0,0,0,102,94.82a102.92,102.92,0,0,0,20.09-12.2C110.94,93.4,103.9,96.11,102.2,97.54l-.25,0h-.28l-.33-.16A82,82,0,0,1,80.5,83.67a53.57,53.57,0,0,1-8.6-9.5A29.59,29.59,0,0,1,67,61.73c-1.31-9,2.45-19.17,11-24.33a20.71,20.71,0,0,1,7-2.61,19.1,19.1,0,0,1,7.58.3,23.93,23.93,0,0,1,9.14,4.53,25.68,25.68,0,0,1,5.6-3.46,7.94,7.94,0,0,1,4.37,5.72c.11.49.11,1,.19,1.56a21,21,0,0,0-7,4.83l-3.24,3.27-2.86-3.21c-4.83-5.44-11.34-8.13-17.3-4.83C75.56,46.52,72,54,72.76,61.07Z"/><path class="cls-7" d="M135.92,56.49a28.83,28.83,0,0,1-.6,5.54,32,32,0,0,1-2.83,7.53,13.57,13.57,0,0,0-2,.49,22.08,22.08,0,0,0,2-8.4v-.14A28.29,28.29,0,0,0,135.92,56.49Z"/><path class="cls-8" d="M75.88,20A42.28,42.28,0,0,0,53.79,42.11l-.26-.1a20.24,20.24,0,0,1,2.27-8.13A26.85,26.85,0,0,1,67.65,22a20.19,20.19,0,0,1,8.13-2.27Z"/><path class="cls-8" d="M75.89,26.77a40.24,40.24,0,0,0-8.65,6.7,40.66,40.66,0,0,0-6.71,8.66L60.29,42a13.62,13.62,0,0,1,1.57-5.72,18.92,18.92,0,0,1,3.44-4.74A19.13,19.13,0,0,1,70,28.1a13.48,13.48,0,0,1,5.72-1.57Z"/><path class="cls-8" d="M75.91,34.25A29.61,29.61,0,0,0,68,42.14L67.8,42a6.62,6.62,0,0,1,.46-3.34,7.61,7.61,0,0,1,4.15-4.14A6.6,6.6,0,0,1,75.74,34Z"/></g></g></svg>