<svg xmlns="http://www.w3.org/2000/svg" viewBox="0 0 241.93 96.88"><defs><style>.cls-1{fill:#ea5152;}.cls-2,.cls-3,.cls-4,.cls-5{fill:#c92321;}.cls-2{opacity:0.75;}.cls-3{opacity:0.9;}.cls-5{opacity:0.5;}.cls-6{fill:#00a79d;}.cls-7{fill:#4e5967;}.cls-8{fill:#fff;opacity:0;}</style></defs><title>Fichier 2</title><g id="Calque_2" data-name="Calque 2"><g id="Calque_1-2" data-name="Calque 1"><path class="cls-1" d="M72.06,66.62A42.79,42.79,0,0,1,60,76.12h0a42.79,42.79,0,0,1-12.11-9.5c-7.13-8.34-2.14-18.14,4.76-18.53a1.54,1.54,0,0,1,.37,0,9.7,9.7,0,0,1,6.9,3.41l.1-.07s0,0,.07.07a9.74,9.74,0,0,1,6.91-3.41,7.85,7.85,0,0,1,4.38,1.44L59.93,64.12l-8-4,8.31,7.22L73.62,51.81C76.22,55.5,76.56,61.34,72.06,66.62Z"/><path class="cls-2" d="M85.45,33.19a12.84,12.84,0,0,1-.27,1.7,18.5,18.5,0,0,1-1.85,4.68A17.42,17.42,0,0,1,86.71,47a12.52,12.52,0,0,0,2-7.76c0-.29-.11-.58-.17-.87a18.94,18.94,0,0,0-1.29-2.69A18.39,18.39,0,0,0,85.45,33.19Z"/><path class="cls-3" d="M73.49,32.8c.05.43.07.86.09,1.29a12.44,12.44,0,0,1,6.68,2.5A13.11,13.11,0,0,0,81,34,5.44,5.44,0,0,0,79,28.22a17.16,17.16,0,0,0-6.32-1.47c-.49,0-1,.05-1.44.09A13.08,13.08,0,0,1,73.49,32.8Z"/><path class="cls-4" d="M34.1,50.57a21.24,21.24,0,0,0,3.07,9.19,43.57,43.57,0,0,0,6.54,7.95A95.1,95.1,0,0,0,60,80.45a91.16,91.16,0,0,0,17.78-10.8c-9.87,9.54-16.1,11.95-17.61,13.21l-.22,0h-.24l-.29-.14A72.38,72.38,0,0,1,41,70.58a47.79,47.79,0,0,1-7.61-8.41,26,26,0,0,1-4.3-11c-1.17-8,2.16-17,9.7-21.54a18.17,18.17,0,0,1,6.17-2.31,16.79,16.79,0,0,1,6.71.27,21,21,0,0,1,8.1,4,22.72,22.72,0,0,1,5-3.07,7.05,7.05,0,0,1,3.87,5.06c.1.44.1.93.17,1.39a18.43,18.43,0,0,0-6.2,4.28l-2.87,2.89-2.53-2.84c-4.28-4.82-10-7.2-15.32-4.28C36.58,37.68,33.45,44.27,34.1,50.57Z"/><path class="cls-5" d="M90,46.51a25.55,25.55,0,0,1-.54,4.91A28.15,28.15,0,0,1,87,58.08a13.31,13.31,0,0,0-1.73.44A19.55,19.55,0,0,0,87,51.08V51A25.65,25.65,0,0,0,90,46.51Z"/><path class="cls-6" d="M36.87,14.22a35.75,35.75,0,0,0-11.66,7.91,35.83,35.83,0,0,0-7.9,11.65l-.23-.09a17.76,17.76,0,0,1,2-7.2A23.8,23.8,0,0,1,29.58,16a17.72,17.72,0,0,1,7.2-2Z"/><path class="cls-6" d="M36.88,20.2a35.62,35.62,0,0,0-7.66,5.93,35.72,35.72,0,0,0-5.94,7.67l-.21-.12a11.87,11.87,0,0,1,1.39-5.07,16.34,16.34,0,0,1,7.23-7.23A12.1,12.1,0,0,1,36.76,20Z"/><path class="cls-6" d="M36.9,26.82a26,26,0,0,0-7,7l-.19-.15a5.82,5.82,0,0,1,.4-2.95A6.77,6.77,0,0,1,33.8,27a5.93,5.93,0,0,1,3-.41Z"/><path class="cls-7" d="M120.35,44.7l-1.21,8.2a9.66,9.66,0,0,0-7.23-3.43c-2.68,0-4,.8-4,2.41,0,.8.73,1.68,2.18,2.64,1.14.71,2.86,1.79,5.14,3.25A8.24,8.24,0,0,1,119,65a10.28,10.28,0,0,1-4.31,8.81,16.4,16.4,0,0,1-9.77,2.78q-6.54,0-9.78-2.69l1.3-9q3.24,4.45,8,4.45,4.35,0,4.35-2.82c0-1-.8-2-2.41-2.92l-4.4-2.5a8.29,8.29,0,0,1-4.4-7.47,10,10,0,0,1,4.35-8.66,16.22,16.22,0,0,1,9.69-2.78Q117.34,42.15,120.35,44.7Z"/><path class="cls-7" d="M141.57,51.56,140.65,58h-6.5L133,66.44a2.16,2.16,0,0,0-.08.6c0,1.42.8,2.12,2.41,2.12a7.83,7.83,0,0,0,4.54-1.71l-1,6.63a14.54,14.54,0,0,1-7.6,1.94q-7.5,0-7.5-6.58a10,10,0,0,1,.14-1.67L125.26,58h-2.87l.51-3.61,13.17-10-1,7.11Z"/><path class="cls-7" d="M166.78,69.3,166,74.67a11.57,11.57,0,0,1-5.79,1.45q-4,0-4.41-2.78a10,10,0,0,1-7.41,2.78,6.74,6.74,0,0,1-4.66-1.6A5.64,5.64,0,0,1,142,70.09a8.16,8.16,0,0,1,4.17-7.46,16.9,16.9,0,0,1,8.76-2h1.57a7.16,7.16,0,0,0,.14-.93q0-1.89-3.15-1.89a14.33,14.33,0,0,0-8.25,2.64l1-6.91a22.71,22.71,0,0,1,10.43-2.36q9,0,9,7.09a11.41,11.41,0,0,1-.18,2l-1.16,8.25v.23c0,.71.34,1.07,1,1.07A3.36,3.36,0,0,0,166.78,69.3Zm-11-3.89a6.3,6.3,0,0,0-.75,0,5.52,5.52,0,0,0-2.65.61,2.42,2.42,0,0,0-1.3,2.18c0,1.11.62,1.66,1.86,1.66a2.84,2.84,0,0,0,2.38-1.15Z"/><path class="cls-7" d="M208.49,57.39a19.06,19.06,0,0,1-.23,2.74l-1.49,10.29a16.56,16.56,0,0,0-.18,2.36,8.68,8.68,0,0,0,.41,2.83H197l2.16-15a3.46,3.46,0,0,0,.07-.6c0-1.3-.58-2-1.72-2a3.62,3.62,0,0,0-3.2,2.18l-2.18,15.39h-8.84l2.17-15a4.41,4.41,0,0,0,.05-.6c0-1.3-.57-2-1.7-2a3.52,3.52,0,0,0-3.18,2.19l-2.22,15.38h-9.07l2.31-16.74a13.46,13.46,0,0,0,.28-2.45c0-2-.76-3.24-2.27-3.61l.14-1.25h11l-.05,3a9.77,9.77,0,0,1,7.6-3.52c3.25,0,5.24,1.18,6,3.52a9.79,9.79,0,0,1,7.79-3.52Q208.49,51.09,208.49,57.39Z"/><path class="cls-7" d="M224.2,51.56l-2.65,18.81a17.82,17.82,0,0,0-.18,2.46,8.87,8.87,0,0,0,.37,2.78H211.69l2.39-16.69a16.09,16.09,0,0,0,.24-2.5c0-2-.77-3.24-2.31-3.61l.18-1.25Zm.64-6a4.23,4.23,0,0,1-1.55,3.31,5.11,5.11,0,0,1-3.5,1.37,4.46,4.46,0,0,1-3-1.11,3.59,3.59,0,0,1-1.28-2.83A4.29,4.29,0,0,1,217,42.91a5.19,5.19,0,0,1,3.54-1.36,4.38,4.38,0,0,1,3,1.11A3.64,3.64,0,0,1,224.84,45.53Z"/><rect class="cls-8" width="241.93" height="96.88"/></g></g></svg>